<?xml version="1.0" encoding="UTF-8"?>
<svg width="62px" height="46px" viewBox="0 0 62 46" version="1.1" xmlns="http://www.w3.org/2000/svg" xmlns:xlink="http://www.w3.org/1999/xlink">
    <!-- Generator: Sketch 46.2 (44496) - http://www.bohemiancoding.com/sketch -->
    <title>Logo</title>
    <desc>Created with Sketch.</desc>
    <defs></defs>
    <g id="Page-1" stroke="none" stroke-width="1" fill="none" fill-rule="evenodd">
        <g id="Logo" transform="translate(1.000000, 2.000000)">
            <path d="M18.1,15.3325301 C17.2,15.4843373 16.55,15.6361446 15.75,16.0915663 L19.55,28.1349398 L22.65,18.8746988 L21.75,16.0915663 C21,15.6361446 20.25,15.4337349 19.4,15.2819277 L19.4,13.2072289 L28.15,13.2072289 L28.15,15.3325301 C27.25,15.4843373 26.75,15.6361446 25.95,16.0409639 L29.6,27.8313253 L33.2,16.1421687 C32.5,15.7373494 31.9,15.5349398 31,15.4337349 L31,13.3084337 L38.6,13.3084337 L38.4,15.5855422 C37.5,15.6361446 36.9,15.7373494 36,16.1421687 L30.55,32.2843373 L27.05,32.2843373 L23.85,22.5180723 L20.5,32.2843373 L16.8,32.2843373 L11.2,16.0915663 C10.4,15.686747 9.55,15.4843373 8.65,15.3325301 L8.65,13.2578313 L18.05,13.2578313 L18.05,15.3325301 L18.1,15.3325301 Z" id="Shape" fill="#1D1D1B" fill-rule="nonzero"></path>
            <path d="M44.05,15.5855422 L44.05,27.2240964 C44.05,28.6915663 44.5,29.7542169 45.95,29.7542169 C46.65,29.7542169 47.15,29.5012048 47.65,29.1975904 L48.15,31.0192771 C47.25,31.7277108 46.1,32.3855422 44.3,32.3855422 C41.3,32.3855422 39.65,30.3614458 39.65,27.1228916 L39.65,15.5855422 L37.05,15.5855422 L37.05,13.2072289 L39.65,13.2072289 L39.65,8.60240964 L44.05,7.43855422 L44.05,13.2578313 L47.8,13.2578313 L47.8,15.6361446 L44.05,15.6361446 L44.05,15.5855422 Z" id="Shape" fill="#1D1D1B" fill-rule="nonzero"></path>
            <rect id="Rectangle-path" stroke="#010000" stroke-width="2.5" x="0.25" y="0.151807229" width="59.3" height="41.6457831"></rect>
        </g>
    </g>
</svg>